<svg viewBox="0 0 48 48" xmlns="http://www.w3.org/2000/svg" xmlns:svg="http://www.w3.org/2000/svg">
 <defs>
  <style>.cls-1 {
                fill: none;
            }

            .cls-2 {
                fill: #007ac2;
            }

            @media (prefers-color-scheme: dark) {
                .cls-2 {fill: #00a0ff;}
            }</style>
 </defs>
  <rect class="cls-1" height="48" width="48"/>
  <path class="cls-2" d="m40.66,17.53l3.51,0l0,14.05l-3.51,0l0,-14.05zm-26.18,12.33a7.3,7.3 0 0 1 -5.28,2.09a7.38,7.38 0 1 1 0,-14.77c3.93,0 6.6,2.75 6.6,7.64l0,0.98l-10.72,0a3.64,3.64 0 0 0 3.77,3.33a4.48,4.48 0 0 0 3.41,-1.49l2.22,2.22zm-9.4,-6.71l7.19,0a3.24,3.24 0 0 0 -3.56,-3.33a3.5,3.5 0 0 0 -3.63,3.33zm15.61,-1.67c0,-1.06 1.11,-1.49 2.06,-1.49a3.18,3.18 0 0 1 2.74,1.42l2.24,-2.24a6.16,6.16 0 0 0 -4.89,-2.01c-2.85,0 -5.65,1.41 -5.65,4.54c0,5.37 7.59,3.08 7.59,5.98c0,1.11 -1.33,1.61 -2.34,1.61a4.3,4.3 0 0 1 -3.33,-1.72l-2.28,2.28a6.9,6.9 0 0 0 5.41,2.09c2.86,0 6.06,-1.18 6.06,-4.51c0,-5.49 -7.59,-3.43 -7.59,-5.95zm18.33,-4.11a4.54,4.54 0 0 0 -1.25,-0.2a4.48,4.48 0 0 0 -4.16,2.57l-0.07,0l0,-2.22l-3.51,0l0,14.05l3.51,0l0,-7.52a3.54,3.54 0 0 1 3.78,-3.55a6.72,6.72 0 0 1 1.56,0.23l0.14,-3.36zm1.06,-4.59a2.34,2.34 0 1 0 2.3,-2.25a2.28,2.28 0 0 0 -2.3,2.25z"/>
</svg>