<svg width="28" height="32" viewBox="0 0 28 32" fill="none" xmlns="http://www.w3.org/2000/svg">
<g clip-path="url(#clip0_5_179)">
<path d="M4.3 8C4.52809 8 4.74683 7.89464 4.90811 7.70711C5.0694 7.51957 5.16 7.26522 5.16 7C5.16 6.73478 5.0694 6.48043 4.90811 6.29289C4.74683 6.10536 4.52809 6 4.3 6C4.07192 6 3.85317 6.10536 3.69189 6.29289C3.53061 6.48043 3.44 6.73478 3.44 7C3.44 7.26522 3.53061 7.51957 3.69189 7.70711C3.85317 7.89464 4.07192 8 4.3 8ZM7.74 7C7.74 7.26522 7.6494 7.51957 7.48811 7.70711C7.32683 7.89464 7.10809 8 6.88 8C6.65192 8 6.43317 7.89464 6.27189 7.70711C6.11061 7.51957 6.02 7.26522 6.02 7C6.02 6.73478 6.11061 6.48043 6.27189 6.29289C6.43317 6.10536 6.65192 6 6.88 6C7.10809 6 7.32683 6.10536 7.48811 6.29289C7.6494 6.48043 7.74 6.73478 7.74 7ZM9.46 8C9.68809 8 9.90683 7.89464 10.0681 7.70711C10.2294 7.51957 10.32 7.26522 10.32 7C10.32 6.73478 10.2294 6.48043 10.0681 6.29289C9.90683 6.10536 9.68809 6 9.46 6C9.23192 6 9.01317 6.10536 8.85189 6.29289C8.69061 6.48043 8.6 6.73478 8.6 7C8.6 7.26522 8.69061 7.51957 8.85189 7.70711C9.01317 7.89464 9.23192 8 9.46 8Z" fill="#212529"/>
<path d="M3.44 2C2.52766 2 1.65268 2.42143 1.00755 3.17157C0.362428 3.92172 0 4.93913 0 6L0 26C0 27.0609 0.362428 28.0783 1.00755 28.8284C1.65268 29.5786 2.52766 30 3.44 30H24.08C24.9923 30 25.8673 29.5786 26.5124 28.8284C27.1576 28.0783 27.52 27.0609 27.52 26V6C27.52 4.93913 27.1576 3.92172 26.5124 3.17157C25.8673 2.42143 24.9923 2 24.08 2H3.44ZM25.8 6V10H1.72V6C1.72 5.46957 1.90121 4.96086 2.22378 4.58579C2.54634 4.21071 2.98383 4 3.44 4H24.08C24.5362 4 24.9737 4.21071 25.2962 4.58579C25.6188 4.96086 25.8 5.46957 25.8 6ZM3.44 28C2.98383 28 2.54634 27.7893 2.22378 27.4142C1.90121 27.0391 1.72 26.5304 1.72 26V12H25.8V26C25.8 26.5304 25.6188 27.0391 25.2962 27.4142C24.9737 27.7893 24.5362 28 24.08 28H3.44Z" fill="#212529"/>
</g>
<defs>
<clipPath id="clip0_5_179">
<rect width="27.52" height="32" fill="white"/>
</clipPath>
</defs>
</svg>
