<svg width="28" height="32" viewBox="0 0 28 32" fill="none" xmlns="http://www.w3.org/2000/svg">
<g clip-path="url(#clip0_5_153)">
<path d="M0 8C0 6.93913 0.362428 5.92172 1.00755 5.17157C1.65268 4.42143 2.52766 4 3.44 4H24.08C24.9923 4 25.8673 4.42143 26.5124 5.17157C27.1576 5.92172 27.52 6.93913 27.52 8V24C27.52 25.0609 27.1576 26.0783 26.5124 26.8284C25.8673 27.5786 24.9923 28 24.08 28H3.44C2.52766 28 1.65268 27.5786 1.00755 26.8284C0.362428 26.0783 0 25.0609 0 24V8ZM3.44 6C2.98383 6 2.54634 6.21071 2.22378 6.58579C1.90121 6.96086 1.72 7.46957 1.72 8V8.434L13.76 16.834L25.8 8.434V8C25.8 7.46957 25.6188 6.96086 25.2962 6.58579C24.9737 6.21071 24.5362 6 24.08 6H3.44ZM25.8 10.766L17.7022 16.416L25.8 22.21V10.766ZM25.7415 24.518L16.0407 17.576L13.76 19.166L11.4793 17.576L1.77848 24.516C1.87622 24.9416 2.09206 25.3178 2.3925 25.5861C2.69294 25.8544 3.06116 25.9999 3.44 26H24.08C24.4586 26.0001 24.8267 25.8548 25.1271 25.5869C25.4275 25.3189 25.6435 24.9432 25.7415 24.518ZM1.72 22.21L9.81776 16.416L1.72 10.766V22.21Z" fill="#212529"/>
</g>
<defs>
<clipPath id="clip0_5_153">
<rect width="27.52" height="32" fill="white"/>
</clipPath>
</defs>
</svg>
