<svg width="28" height="32" viewBox="0 0 28 32" fill="none" xmlns="http://www.w3.org/2000/svg">
<g clip-path="url(#clip0_5_171)">
<path d="M13.76 32C13.76 32 24.08 20.628 24.08 12C24.08 8.8174 22.9927 5.76515 21.0573 3.51472C19.122 1.26428 16.497 0 13.76 0C11.023 0 8.39804 1.26428 6.46266 3.51472C4.52728 5.76515 3.44 8.8174 3.44 12C3.44 20.628 13.76 32 13.76 32ZM13.76 18C12.3915 18 11.079 17.3679 10.1113 16.2426C9.14364 15.1174 8.6 13.5913 8.6 12C8.6 10.4087 9.14364 8.88258 10.1113 7.75736C11.079 6.63214 12.3915 6 13.76 6C15.1285 6 16.441 6.63214 17.4087 7.75736C18.3764 8.88258 18.92 10.4087 18.92 12C18.92 13.5913 18.3764 15.1174 17.4087 16.2426C16.441 17.3679 15.1285 18 13.76 18Z" fill="#212529"/>
</g>
<defs>
<clipPath id="clip0_5_171">
<rect width="27.52" height="32" fill="white"/>
</clipPath>
</defs>
</svg>
