<svg width="28" height="32" viewBox="0 0 28 32" fill="none" xmlns="http://www.w3.org/2000/svg">
<g clip-path="url(#clip0_5_199)">
<path d="M0 2.292C0 1.026 0.90472 0 2.021 0H25.499C26.6153 0 27.52 1.026 27.52 2.292V29.708C27.52 30.974 26.6153 32 25.499 32H2.021C0.90472 32 0 30.974 0 29.708V2.292ZM8.50196 26.788V12.338H4.37224V26.788H8.50196ZM6.43796 10.364C7.8776 10.364 8.77372 9.256 8.77372 7.868C8.74792 6.45 7.87932 5.372 6.46548 5.372C5.05164 5.372 4.128 6.452 4.128 7.868C4.128 9.256 5.02412 10.364 6.41044 10.364H6.43796ZM14.8797 26.788V18.718C14.8797 18.286 14.9072 17.854 15.0173 17.546C15.3149 16.684 15.9943 15.79 17.1364 15.79C18.631 15.79 19.2279 17.114 19.2279 19.058V26.788H23.3576V18.5C23.3576 14.06 21.3211 11.996 18.6035 11.996C16.4122 11.996 15.4301 13.396 14.8797 14.382V14.432H14.8522L14.8797 14.382V12.338H10.7517C10.8033 13.694 10.7517 26.788 10.7517 26.788H14.8797Z" fill="#212529"/>
</g>
<defs>
<clipPath id="clip0_5_199">
<rect width="27.52" height="32" fill="white"/>
</clipPath>
</defs>
</svg>
