<svg width="28" height="32" viewBox="0 0 28 32" fill="none" xmlns="http://www.w3.org/2000/svg">
<g clip-path="url(#clip0_5_163)">
<path d="M6.28477 2.65598C6.18324 2.5041 6.05507 2.37908 5.90879 2.28923C5.7625 2.19938 5.60145 2.14674 5.43633 2.13482C5.27121 2.12291 5.1058 2.15198 4.95108 2.22011C4.79636 2.28824 4.65588 2.39387 4.53897 2.52998L2.76049 4.59998C1.92973 5.56798 1.62357 6.93798 1.98649 8.13998C3.49447 13.1142 5.94448 17.6308 9.15545 21.356C12.3591 25.0897 16.2434 27.9385 20.5212 29.692C21.5549 30.114 22.7331 29.758 23.5656 28.792L25.3441 26.724C25.4612 26.588 25.552 26.4247 25.6106 26.2448C25.6692 26.0649 25.6942 25.8725 25.6839 25.6805C25.6737 25.4885 25.6284 25.3013 25.5511 25.1312C25.4739 24.9611 25.3664 24.812 25.2357 24.694L21.2677 21.106C21.128 20.9804 20.9657 20.8932 20.793 20.8509C20.6202 20.8087 20.4414 20.8125 20.2701 20.862L16.5033 21.956C16.0005 22.1011 15.4739 22.0929 14.9746 21.932C14.4753 21.7712 14.0202 21.4633 13.6533 21.038L9.42894 16.124C9.06289 15.6975 8.79772 15.1684 8.65911 14.5878C8.5205 14.0072 8.51314 13.3948 8.63773 12.81L9.5803 8.42998C9.62288 8.23075 9.62612 8.02289 9.58978 7.822C9.55344 7.6211 9.47846 7.43238 9.37045 7.26998L6.28477 2.65598ZM3.24037 1.02198C3.54137 0.671879 3.90297 0.40024 4.30117 0.225102C4.69937 0.0499638 5.12505 -0.0246668 5.54996 0.00616572C5.97487 0.0369983 6.38927 0.172589 6.76565 0.403933C7.14204 0.635278 7.47179 0.957083 7.73301 1.34798L10.8187 5.95998C11.3846 6.80598 11.5841 7.90798 11.3605 8.94798L10.4197 13.328C10.3714 13.5549 10.3741 13.7924 10.4278 14.0176C10.4814 14.2429 10.5841 14.4483 10.7258 14.614L14.9519 19.528C15.0945 19.6932 15.2714 19.8127 15.4655 19.8751C15.6596 19.9374 15.8642 19.9405 16.0595 19.884L19.8246 18.79C20.266 18.6624 20.7266 18.6528 21.1717 18.7619C21.6167 18.871 22.0347 19.096 22.3943 19.42L26.3606 23.008C27.7865 24.298 27.9172 26.748 26.641 28.23L24.8625 30.298C23.5897 31.778 21.6874 32.428 19.9141 31.702C15.3744 29.8471 11.2531 26.8255 7.85685 22.862C4.44846 18.9135 1.84984 14.1219 0.254454 8.84398C-0.368186 6.78398 0.190814 4.56998 1.46361 3.08998L3.24037 1.02198Z" fill="#212529"/>
</g>
<defs>
<clipPath id="clip0_5_163">
<rect width="27.52" height="32" fill="white"/>
</clipPath>
</defs>
</svg>
